<?xml version="1.0" encoding="UTF-8"?>
<!DOCTYPE svg PUBLIC "-//W3C//DTD SVG 1.1//EN" "http://www.w3.org/Graphics/SVG/1.1/DTD/svg11.dtd">
<!-- Creator: CorelDRAW 2020 (64-Bit) -->
<svg xmlns="http://www.w3.org/2000/svg" xml:space="preserve" width="9.74028in" height="3.26515in" version="1.1" style="shape-rendering:geometricPrecision; text-rendering:geometricPrecision; image-rendering:optimizeQuality; fill-rule:evenodd; clip-rule:evenodd"
viewBox="0 0 8314.08 2787.05"
 xmlns:xlink="http://www.w3.org/1999/xlink"
 xmlns:xodm="http://www.corel.com/coreldraw/odm/2003">
 <defs>
  <style type="text/css">
   <![CDATA[
    .fil0 {fill:none}
    .fil10 {fill:#727376;fill-rule:nonzero}
    .fil9 {fill:#373435;fill-rule:nonzero}
    .fil8 {fill:#007AFF;fill-rule:nonzero}
    .fil3 {fill:#00CCCC;fill-rule:nonzero}
    .fil6 {fill:#50F1F9;fill-rule:nonzero}
    .fil4 {fill:#7BFFFB;fill-rule:nonzero}
    .fil1 {fill:#F37D08;fill-rule:nonzero}
    .fil2 {fill:#F9A104;fill-rule:nonzero}
    .fil5 {fill:#FFC000;fill-rule:nonzero}
    .fil7 {fill:#FFD876;fill-rule:nonzero}
   ]]>
  </style>
 </defs>
 <g id="Layer_x0020_1">
  <metadata id="CorelCorpID_0Corel-Layer"/>
  <g id="_2546963391024">
   <line class="fil0" x1="1548.33" y1="2710.18" x2="1548.15" y2= "2709.72" />
   <line class="fil0" x1="1480.88" y1="2709.91" x2="1480.77" y2= "2710.18" />
   <polygon class="fil0" points="1515.23,2398.29 1515.23,2398.74 1514.59,2398.5 1515.22,2398.3 1515.22,2398.29 "/>
   <polygon class="fil1" points="1514.53,2626.89 1480.87,2709.9 1358.47,2408.12 1423.49,2431.89 1437.55,2437.04 "/>
   <polygon class="fil2" points="1670.43,2408.17 1548.13,2709.72 1516.8,2787.03 1516.79,2787.05 1437.87,2757.21 1437.87,2757.19 1285.47,2381.39 1253.73,2303.1 1253.71,2303.07 1253.76,2303.08 1326.71,2329.8 1405.79,2358.72 1515.23,2398.29 1515.23,2398.74 1515.23,2464.98 1514.59,2465.21 1437.54,2437.04 1423.49,2431.88 1358.46,2408.12 1480.87,2709.9 1514.53,2626.89 1515.16,2625.32 1591.53,2437.09 1605.71,2431.88 "/>
   <polygon class="fil3" points="1702.25,2329.86 1702.23,2329.89 1644.6,2350.95 "/>
   <polygon class="fil4" points="1738.37,2316.66 1702.23,2329.89 1644.6,2350.95 1702.25,2329.86 "/>
   <polygon class="fil5" points="1775.7,2303.02 1743.94,2381.33 1590.69,2759.14 1516.86,2787.04 1516.8,2787.03 1548.13,2709.72 1670.43,2408.17 1605.71,2431.88 1591.53,2437.09 1515.23,2464.98 1515.23,2398.29 1623.28,2358.77 1644.6,2350.95 1702.23,2329.89 1738.37,2316.66 1744.93,2314.26 "/>
   <polygon class="fil6" points="1516.86,2787.04 1516.79,2787.05 1516.8,2787.03 "/>
   <polygon class="fil7" points="1721.45,2282.47 1690.41,2270.74 1653.48,2284.25 1653.48,2284.27 1515.19,2334.81 1375.34,2283.66 1339.63,2270.61 1307.6,2282.72 1253.74,2303.05 1326.68,2329.78 1405.77,2358.69 1515.23,2398.29 1623.28,2358.77 1644.6,2350.95 1702.25,2329.86 1738.37,2316.66 1744.93,2314.26 1775.7,2303 1775.7,2302.96 "/>
  </g>
  <g id="_2546964109616">
   <path class="fil8" d="M468.28 867.8c-89.31,0 -169.53,-18.57 -240.66,-55.72 -71.13,-37.15 -126.85,-88.72 -167.16,-154.71 -40.31,-65.99 -60.46,-140.48 -60.46,-223.47 0,-82.99 20.15,-157.48 60.46,-223.47 40.31,-65.99 96.03,-117.57 167.16,-154.71 71.13,-37.15 151.35,-55.72 240.66,-55.72 89.31,0 169.53,18.57 240.66,55.72 71.13,37.14 126.85,88.71 167.16,154.71 40.31,65.99 60.46,140.48 60.46,223.47 0,82.99 -20.15,157.47 -60.46,223.47 -40.31,65.99 -96.03,117.57 -167.16,154.71 -71.13,37.15 -151.35,55.72 -240.66,55.72zm0 -226.43c34.77,0 66.19,-8.5 94.25,-25.49 28.06,-16.99 50.38,-41.1 66.98,-72.32 16.6,-31.22 24.89,-67.77 24.89,-109.66 0,-41.89 -8.3,-78.44 -24.89,-109.66 -16.6,-31.22 -38.93,-55.32 -66.98,-72.32 -28.06,-16.99 -59.47,-25.49 -94.25,-25.49 -34.77,0 -66.19,8.5 -94.25,25.49 -28.06,16.99 -50.38,41.1 -66.98,72.32 -16.6,31.22 -24.89,67.77 -24.89,109.66 0,41.89 8.3,78.44 24.89,109.66 16.6,31.22 38.93,55.32 66.98,72.32 28.06,16.99 59.47,25.49 94.25,25.49zm1388.25 -622.4l0 829.87 -229.99 0 -315.35 -377 0 377 -272.67 0 0 -829.87 229.99 0 315.35 377 0 -377 272.67 0zm825.13 618.85l0 211.02 -689.98 0 0 -829.87 674.56 0 0 211.02 -399.52 0 0 97.21 350.91 0 0 201.54 -350.91 0 0 109.07 414.93 0z"/>
   <path class="fil9" d="M33.19 1179.7l409.01 0c92.47,0 174.07,16.8 244.81,50.38 70.74,33.59 125.67,81.6 164.79,144.04 39.12,62.44 58.68,135.94 58.68,220.51 0,84.57 -19.56,158.07 -58.68,220.51 -39.12,62.44 -94.05,110.45 -164.79,144.04 -70.74,33.59 -152.34,50.38 -244.81,50.38l-409.01 0 0 -829.87zm397.15 611.73c60.07,0 108.08,-17.19 144.04,-51.57 35.96,-34.38 53.94,-82.79 53.94,-145.23 0,-62.44 -17.98,-110.85 -53.94,-145.23 -35.96,-34.38 -83.98,-51.57 -144.04,-51.57l-117.37 0 0 393.59 117.37 0zm1135.73 73.5l-315.35 0 -55.72 144.63 -284.53 0 362.77 -829.87 275.04 0 362.77 829.87 -289.27 0 -55.72 -144.63zm-77.06 -201.54l-80.62 -208.65 -80.62 208.65 161.23 0zm776.52 365.14c-68.76,0 -135.74,-7.71 -200.94,-23.12 -65.2,-15.41 -118.75,-36.16 -160.64,-62.24l90.1 -203.91c39.52,22.92 83.78,41.29 132.78,55.13 49,13.83 96.03,20.74 141.08,20.74 38.73,0 66.39,-3.75 82.99,-11.26 16.6,-7.51 24.9,-18.77 24.9,-33.79 0,-17.39 -10.87,-30.43 -32.6,-39.12 -21.73,-8.69 -57.5,-18.18 -107.29,-28.45 -64.02,-13.44 -117.37,-27.86 -160.05,-43.27 -42.68,-15.41 -79.83,-40.7 -111.44,-75.87 -31.62,-35.17 -47.42,-82.79 -47.42,-142.85 0,-52.17 14.62,-99.59 43.86,-142.27 29.24,-42.68 72.91,-76.27 131,-100.77 58.09,-24.5 128.63,-36.75 211.62,-36.75 56.91,0 112.82,6.13 167.75,18.38 54.93,12.25 103.34,30.23 145.23,53.94l-84.17 202.72c-81.41,-41.1 -158.46,-61.65 -231.17,-61.65 -71.92,0 -107.88,17.39 -107.88,52.16 0,16.6 10.67,29.05 32.01,37.35 21.34,8.3 56.51,17.19 105.51,26.67 63.23,11.86 116.58,25.49 160.05,40.9 43.47,15.41 81.21,40.5 113.22,75.28 32.01,34.78 48.01,82.2 48.01,142.27 0,52.16 -14.62,99.38 -43.87,141.67 -29.24,42.28 -72.91,75.87 -131,100.77 -58.09,24.89 -128.63,37.34 -211.62,37.34zm1287.48 -848.83l0 829.87 -279.78 0 0 -305.87 -258.45 0 0 305.87 -279.78 0 0 -829.87 279.78 0 0 294.01 258.45 0 0 -294.01 279.78 0zm799.05 395.97c49,18.18 86.94,44.65 113.81,79.43 26.87,34.78 40.31,76.66 40.31,125.67 0,72.71 -30.03,129.02 -90.1,168.94 -60.07,39.91 -147,59.87 -260.81,59.87l-467.1 0 0 -829.87 443.39 0c110.65,0 194.23,19.76 250.74,59.28 56.51,39.52 84.76,92.08 84.76,157.68 0,38.73 -9.68,73.5 -29.05,104.32 -19.36,30.82 -48.01,55.72 -85.95,74.69zm-388.85 -200.35l0 123.29 130.41 0c60.86,0 91.29,-20.55 91.29,-61.65 0,-41.1 -30.43,-61.65 -91.29,-61.65l-130.41 0zm168.34 438.64c61.65,0 92.47,-21.74 92.47,-65.2 0,-43.47 -30.82,-65.2 -92.47,-65.2l-168.34 0 0 130.41 168.34 0zm908.11 214.58c-89.31,0 -169.53,-18.57 -240.66,-55.72 -71.13,-37.15 -126.85,-88.72 -167.16,-154.71 -40.31,-65.99 -60.46,-140.48 -60.46,-223.47 0,-82.99 20.15,-157.48 60.46,-223.47 40.31,-65.99 96.03,-117.57 167.16,-154.71 71.13,-37.15 151.35,-55.72 240.66,-55.72 89.31,0 169.53,18.57 240.66,55.72 71.13,37.14 126.85,88.71 167.16,154.71 40.31,65.99 60.46,140.48 60.46,223.47 0,82.99 -20.15,157.47 -60.46,223.47 -40.31,65.99 -96.03,117.57 -167.16,154.71 -71.13,37.15 -151.35,55.72 -240.66,55.72zm0 -226.43c34.77,0 66.19,-8.5 94.25,-25.49 28.06,-16.99 50.38,-41.1 66.98,-72.32 16.6,-31.22 24.89,-67.77 24.89,-109.66 0,-41.89 -8.3,-78.44 -24.89,-109.66 -16.6,-31.22 -38.93,-55.32 -66.98,-72.32 -28.06,-16.99 -59.47,-25.49 -94.25,-25.49 -34.77,0 -66.19,8.5 -94.25,25.49 -28.06,16.99 -50.38,41.1 -66.98,72.32 -16.6,31.22 -24.89,67.77 -24.89,109.66 0,41.89 8.3,78.44 24.89,109.66 16.6,31.22 38.93,55.32 66.98,72.32 28.06,16.99 59.47,25.49 94.25,25.49zm1123.87 62.83l-315.35 0 -55.72 144.63 -284.53 0 362.77 -829.87 275.04 0 362.77 829.87 -289.27 0 -55.72 -144.63zm-77.06 -201.54l-80.62 -208.65 -80.62 208.65 161.23 0zm822.75 137.52l-75.87 0 0 208.65 -279.78 0 0 -829.87 399.52 0c76.66,0 143.45,12.65 200.35,37.94 56.9,25.29 100.77,61.65 131.59,109.07 30.83,47.42 46.24,102.75 46.24,165.97 0,59.28 -13.44,111.04 -40.31,155.3 -26.87,44.26 -65.6,79.43 -116.18,105.51l174.27 256.07 -298.75 0 -141.08 -208.65zm139.89 -308.24c0,-30.82 -9.49,-54.73 -28.45,-71.72 -18.97,-16.99 -47.42,-25.49 -85.36,-25.49l-101.96 0 0 194.43 101.96 0c37.94,0 66.39,-8.5 85.36,-25.49 18.97,-16.99 28.45,-40.9 28.45,-71.72zm387.66 -312.98l409.01 0c92.47,0 174.07,16.8 244.81,50.38 70.74,33.59 125.67,81.6 164.79,144.04 39.12,62.44 58.68,135.94 58.68,220.51 0,84.57 -19.56,158.07 -58.68,220.51 -39.12,62.44 -94.05,110.45 -164.79,144.04 -70.74,33.59 -152.34,50.38 -244.81,50.38l-409.01 0 0 -829.87zm397.15 611.73c60.07,0 108.08,-17.19 144.04,-51.57 35.96,-34.38 53.94,-82.79 53.94,-145.23 0,-62.44 -17.98,-110.85 -53.94,-145.23 -35.96,-34.38 -83.98,-51.57 -144.04,-51.57l-117.37 0 0 393.59 117.37 0z"/>
  </g>
  <path class="fil9" d="M298.07 2513.59c22.59,7.15 40.29,19.11 53.1,35.87 12.8,16.76 19.21,37.38 19.21,61.85 0,34.65 -13.46,61.29 -40.39,79.93 -26.93,18.64 -66.19,27.96 -117.78,27.96l-204.49 0 0 -395.42 193.19 0c48.2,0 85.2,9.22 111,27.68 25.8,18.45 38.69,43.5 38.69,75.13 0,19.21 -4.61,36.34 -13.84,51.4 -9.23,15.07 -22.13,26.93 -38.69,35.59zm-199.4 -120.89l0 93.21 90.95 0c22.59,0 39.73,-3.96 51.4,-11.86 11.67,-7.91 17.51,-19.59 17.51,-35.02 0,-15.44 -5.84,-27.02 -17.51,-34.74 -11.67,-7.72 -28.81,-11.58 -51.4,-11.58l-90.95 0zm106.76 257.59c24.1,0 42.27,-3.96 54.51,-11.86 12.24,-7.91 18.36,-20.15 18.36,-36.72 0,-32.77 -24.29,-49.14 -72.87,-49.14l-106.76 0 0 97.72 106.76 0zm415.76 -71.18l0 140.09 -91.51 0 0 -141.22 -153.08 -254.2 97.16 0 105.63 175.68 105.63 -175.68 89.82 0 -153.65 255.33z"/>
  <path class="fil10" d="M2190.13 2486.96c34.65,5.65 61.24,18.59 79.65,38.7 18.41,20.1 27.68,45.1 27.68,74.85 0,22.97 -6.07,44.2 -18.08,63.55 -12,19.35 -30.41,34.93 -55.08,46.6 -24.67,11.67 -54.89,17.51 -90.66,17.51 -27.87,0 -55.31,-3.72 -82.19,-11.02 -26.88,-7.3 -49.8,-17.79 -68.63,-31.35l35.59 -70.04c15.06,11.29 32.52,20.1 52.25,26.27 19.73,6.17 40.01,9.32 60.72,9.32 22.97,0 41.09,-4.47 54.23,-13.27 13.13,-8.8 19.77,-21.37 19.77,-37.56 0,-32.39 -24.76,-48.58 -74,-48.58l-41.8 0 0 -60.44 81.35 -92.08 -168.34 0 0 -73.43 276.79 0 0 59.31 -89.25 101.68zm174.55 -160.99l179.63 0c42.93,0 80.87,8.19 113.82,24.57 32.95,16.38 58.56,39.45 76.83,69.2 18.26,29.75 27.4,64.4 27.4,103.94 0,39.54 -9.17,74.24 -27.4,103.94 -18.22,29.7 -43.88,52.81 -76.83,69.2 -32.95,16.38 -70.98,24.57 -113.82,24.57l-179.63 0 0 -395.42zm175.11 320.29c39.54,0 71.12,-11.06 94.62,-33.05 23.49,-21.98 35.31,-51.87 35.31,-89.53 0,-37.66 -11.82,-67.55 -35.31,-89.53 -23.49,-21.98 -55.17,-33.05 -94.62,-33.05l-83.6 0 0 245.16 83.6 0zm670.82 81.91c-40.3,0 -76.73,-8.75 -109.3,-26.27 -32.57,-17.51 -58.18,-41.8 -76.83,-72.87 -18.64,-31.07 -27.96,-66.19 -27.96,-105.35 0,-39.16 9.32,-74.28 27.96,-105.35 18.64,-31.07 44.25,-55.36 76.83,-72.87 32.57,-17.51 69.2,-26.27 109.87,-26.27 34.27,0 65.29,6.08 92.92,18.08 27.63,12 50.94,29.37 69.76,51.97l-58.75 54.23c-26.74,-30.88 -59.88,-46.32 -99.42,-46.32 -24.48,0 -46.32,5.36 -65.53,16.1 -19.21,10.73 -34.18,25.71 -44.91,44.91 -10.73,19.2 -16.1,41.05 -16.1,65.52 0,24.48 5.42,46.37 16.1,65.53 10.68,19.16 25.75,34.23 44.91,44.91 19.16,10.68 41.05,16.1 65.53,16.1 39.54,0 72.68,-15.63 99.42,-46.88l58.75 54.23c-18.83,22.97 -42.23,40.53 -70.05,52.54 -27.82,12 -58.93,18.08 -93.2,18.08zm407.84 0c-41.05,0 -78.05,-8.85 -111,-26.55 -32.95,-17.7 -58.75,-42.08 -77.39,-73.15 -18.64,-31.07 -27.96,-66 -27.96,-104.79 0,-38.79 9.32,-73.72 27.96,-104.78 18.64,-31.07 44.44,-55.45 77.39,-73.15 32.95,-17.7 69.95,-26.55 111,-26.55 41.05,0 78,8.9 110.72,26.55 32.71,17.65 58.56,42.08 77.39,73.15 18.83,31.07 28.25,66 28.25,104.78 0,38.79 -9.42,73.72 -28.25,104.79 -18.83,31.07 -44.67,55.5 -77.39,73.15 -32.71,17.65 -69.67,26.55 -110.72,26.55zm0 -77.95c23.35,0 44.49,-5.41 63.27,-16.1 18.78,-10.68 33.61,-25.7 44.34,-44.91 10.73,-19.21 16.1,-41.05 16.1,-65.53 0,-24.48 -5.42,-46.37 -16.1,-65.52 -10.69,-19.16 -25.51,-34.18 -44.34,-44.91 -18.83,-10.73 -39.92,-16.1 -63.27,-16.1 -23.35,0 -44.44,5.36 -63.27,16.1 -18.83,10.73 -33.61,25.71 -44.34,44.91 -10.73,19.2 -16.1,41.05 -16.1,65.52 0,24.48 5.42,46.37 16.1,65.53 10.68,19.16 25.56,34.23 44.34,44.91 18.78,10.68 39.92,16.1 63.27,16.1zm647.92 -324.24l0 395.42 -75.13 0 -197.14 -240.08 0 240.08 -90.38 0 0 -395.42 75.69 0 196.58 240.07 0 -240.07 90.38 0zm175.68 74.56l-126.53 0 0 -74.56 344.58 0 0 74.56 -126.53 0 0 320.85 -91.51 0 0 -320.85zm573.35 247.42l0 73.43 -306.17 0 0 -395.42 298.82 0 0 73.43 -207.88 0 0 85.86 183.59 0 0 71.18 -183.59 0 0 91.51 215.22 0zm435.52 -321.98l0 395.42 -75.13 0 -197.14 -240.08 0 240.08 -90.38 0 0 -395.42 75.69 0 196.58 240.07 0 -240.07 90.38 0zm175.68 74.56l-126.53 0 0 -74.56 344.58 0 0 74.56 -126.53 0 0 320.85 -91.51 0 0 -320.85zm604.6 327.63c-31.26,0 -61.48,-4.24 -90.66,-12.71 -29.19,-8.47 -52.63,-19.49 -70.33,-33.04l31.07 -68.92c16.95,12.43 37.09,22.41 60.44,29.94 23.35,7.53 46.69,11.3 70.04,11.3 25.98,0 45.19,-3.86 57.62,-11.58 12.43,-7.72 18.64,-17.98 18.64,-30.79 0,-9.42 -3.67,-17.23 -11.02,-23.44 -7.34,-6.21 -16.76,-11.2 -28.25,-14.97 -11.49,-3.77 -27.02,-7.91 -46.6,-12.43 -30.13,-7.15 -54.79,-14.31 -74,-21.47 -19.21,-7.15 -35.68,-18.64 -49.43,-34.46 -13.74,-15.81 -20.62,-36.91 -20.62,-63.27 0,-22.97 6.21,-43.78 18.64,-62.42 12.43,-18.64 31.16,-33.42 56.2,-44.35 25.04,-10.92 55.64,-16.38 91.79,-16.38 25.23,0 49.9,3.01 74,9.04 24.1,6.03 45.19,14.69 63.27,25.99l-28.25 69.48c-36.53,-20.71 -73.06,-31.07 -109.59,-31.07 -25.61,0 -44.53,4.14 -56.77,12.43 -12.24,8.28 -18.36,19.21 -18.36,32.76 0,13.56 7.06,23.63 21.18,30.22 14.12,6.59 35.68,13.09 64.68,19.49 30.13,7.16 54.79,14.31 74,21.47 19.21,7.15 35.68,18.45 49.43,33.89 13.75,15.44 20.62,36.34 20.62,62.7 0,22.6 -6.31,43.21 -18.92,61.85 -12.62,18.64 -31.54,33.42 -56.77,44.34 -25.23,10.92 -55.92,16.38 -92.08,16.38zm306.73 -327.63l-126.53 0 0 -74.56 344.58 0 0 74.56 -126.53 0 0 320.85 -91.51 0 0 -320.85zm436.09 327.63c-56.49,0 -100.46,-15.63 -131.9,-46.89 -31.44,-31.26 -47.17,-75.88 -47.17,-133.88l0 -221.43 91.51 0 0 218.05c0,70.8 29.37,106.2 88.12,106.2 28.62,0 50.46,-8.57 65.53,-25.7 15.06,-17.14 22.59,-43.97 22.59,-80.49l0 -218.05 90.38 0 0 221.43c0,58 -15.72,102.62 -47.17,133.88 -31.44,31.26 -75.41,46.89 -131.9,46.89zm269.45 -402.2l179.63 0c42.93,0 80.87,8.19 113.82,24.57 32.95,16.38 58.56,39.45 76.83,69.2 18.26,29.75 27.4,64.4 27.4,103.94 0,39.54 -9.13,74.19 -27.4,103.94 -18.26,29.75 -43.88,52.81 -76.83,69.2 -32.95,16.38 -70.89,24.57 -113.82,24.57l-179.63 0 0 -395.42zm175.11 320.29c39.54,0 71.08,-11.02 94.62,-33.05 23.54,-22.03 35.31,-51.87 35.31,-89.53 0,-37.66 -11.77,-67.5 -35.31,-89.53 -23.54,-22.03 -55.08,-33.05 -94.62,-33.05l-83.6 0 0 245.16 83.6 0zm291.48 -320.29l91.51 0 0 395.42 -91.51 0 0 -395.42zm376.78 402.2c-41.05,0 -78.05,-8.85 -111,-26.55 -32.95,-17.7 -58.75,-42.08 -77.39,-73.15 -18.64,-31.07 -27.96,-66 -27.96,-104.79 0,-38.79 9.32,-73.72 27.96,-104.78 18.64,-31.07 44.44,-55.45 77.39,-73.15 32.95,-17.7 69.95,-26.55 111,-26.55 41.05,0 77.95,8.85 110.72,26.55 32.77,17.7 58.56,42.08 77.39,73.15 18.83,31.07 28.25,66 28.25,104.78 0,38.79 -9.42,73.72 -28.25,104.79 -18.83,31.07 -44.62,55.45 -77.39,73.15 -32.76,17.7 -69.67,26.55 -110.72,26.55zm0 -77.95c23.35,0 44.44,-5.37 63.27,-16.1 18.83,-10.73 33.61,-25.7 44.34,-44.91 10.73,-19.21 16.1,-41.05 16.1,-65.53 0,-24.48 -5.37,-46.32 -16.1,-65.52 -10.73,-19.21 -25.51,-34.18 -44.34,-44.91 -18.83,-10.73 -39.92,-16.1 -63.27,-16.1 -23.35,0 -44.44,5.36 -63.27,16.1 -18.83,10.73 -33.61,25.7 -44.34,44.91 -10.73,19.21 -16.1,41.05 -16.1,65.52 0,24.48 5.37,46.32 16.1,65.53 10.73,19.21 25.51,34.18 44.34,44.91 18.83,10.73 39.92,16.1 63.27,16.1z"/>
 </g>
</svg>
